<?xml version="1.0" standalone="no"?>
<!DOCTYPE svg PUBLIC "-//W3C//DTD SVG 20010904//EN"
 "http://www.w3.org/TR/2001/REC-SVG-20010904/DTD/svg10.dtd">
<svg version="1.0" xmlns="http://www.w3.org/2000/svg"
 width="2048.000000pt" height="2048.000000pt" viewBox="0 0 2048.000000 2048.000000"
 preserveAspectRatio="xMidYMid meet">
<metadata>
Created by potrace 1.14, written by Peter Selinger 2001-2017
</metadata>
<g transform="translate(0.000000,2048.000000) scale(0.100000,-0.100000)"
fill="#000000" stroke="none">
<path d="M6013 20118 c-21 -3 -63 -9 -93 -13 -30 -3 -62 -8 -70 -10 -8 -2 -35
-7 -60 -10 -25 -2 -54 -7 -66 -9 -12 -2 -45 -7 -75 -11 -30 -3 -164 -33 -299
-67 -135 -33 -249 -61 -255 -63 -5 -1 -22 -7 -36 -12 -14 -6 -45 -17 -70 -24
-24 -7 -48 -16 -54 -19 -5 -4 -41 -18 -80 -30 -89 -29 -229 -82 -291 -111
-208 -94 -438 -213 -593 -308 -101 -61 -185 -111 -187 -111 -2 0 -12 -7 -21
-15 -15 -12 -251 -187 -338 -250 -27 -20 -110 -91 -150 -130 -12 -11 -59 -54
-106 -95 -101 -90 -175 -164 -289 -290 -47 -52 -95 -105 -107 -118 -13 -14
-23 -29 -23 -33 0 -5 -7 -9 -15 -9 -8 0 -15 -6 -15 -14 0 -8 -3 -16 -8 -18 -7
-3 -67 -78 -104 -129 -9 -13 -53 -73 -98 -134 -78 -103 -160 -222 -160 -230 0
-2 -44 -77 -98 -167 -54 -90 -107 -183 -119 -208 -12 -25 -47 -99 -78 -165
-31 -66 -65 -138 -76 -160 -18 -35 -184 -484 -194 -525 -2 -8 -30 -123 -64
-255 -33 -132 -62 -262 -66 -290 -3 -27 -10 -77 -16 -110 -6 -33 -13 -76 -14
-95 -2 -19 -6 -44 -9 -56 -7 -31 -18 -123 -21 -169 -20 -311 -23 -487 -11
-720 12 -242 13 -248 19 -285 4 -19 9 -52 12 -72 3 -21 7 -55 10 -75 3 -21 8
-53 11 -72 2 -19 6 -43 9 -55 2 -12 7 -41 10 -66 3 -25 8 -58 11 -75 9 -51
126 -509 132 -520 3 -5 25 -63 48 -130 77 -220 113 -317 123 -329 5 -6 10 -14
10 -18 1 -5 26 -61 57 -125 31 -65 71 -150 90 -189 31 -67 280 -489 304 -517
6 -6 56 -73 111 -147 55 -74 106 -143 114 -153 8 -9 15 -20 15 -23 0 -2 17
-23 38 -46 58 -64 74 -82 137 -154 67 -75 269 -280 330 -334 22 -19 81 -71
130 -116 50 -44 133 -112 185 -151 52 -38 138 -101 190 -139 79 -58 399 -259
435 -273 5 -2 12 -7 15 -11 9 -13 488 -241 546 -260 21 -7 48 -16 59 -21 32
-12 249 -91 260 -93 6 -2 24 -8 40 -15 17 -7 66 -21 110 -32 44 -11 98 -25
120 -31 22 -5 50 -12 62 -14 12 -2 34 -9 48 -14 14 -5 25 -7 25 -4 0 2 8 0 18
-5 9 -5 31 -11 47 -14 17 -2 48 -9 70 -15 36 -9 77 -17 155 -27 123 -16 233
-33 270 -42 31 -7 857 -17 850 -10 -3 3 -30 8 -60 11 -30 3 -81 11 -112 16
-32 6 -74 13 -95 15 -68 9 -87 12 -133 25 -25 7 -56 14 -68 16 -13 3 -49 12
-80 20 -32 8 -70 18 -86 20 -32 6 -177 54 -342 113 -165 59 -458 198 -602 286
-10 6 -39 23 -67 40 -70 41 -185 115 -216 139 -15 12 -37 29 -50 38 -74 53
-178 130 -200 150 -232 201 -477 450 -582 592 -21 28 -45 59 -53 69 -7 9 -14
20 -14 23 0 3 -7 12 -15 20 -8 9 -36 46 -62 82 -26 37 -51 68 -55 70 -5 2 -8
9 -8 15 0 6 -6 18 -14 26 -7 9 -25 37 -39 62 -34 62 -51 91 -60 103 -4 6 -25
39 -46 73 -33 51 -37 62 -23 65 9 2 2189 3 4843 3 3325 -1 4826 3 4824 10 -3
13 -29 71 -102 225 -33 69 -79 179 -102 245 -23 66 -45 127 -48 135 -4 8 -13
35 -22 60 l-16 45 -4843 2 c-2664 0 -4846 3 -4848 6 -3 2 -6 13 -9 23 -2 11
-15 64 -30 118 -14 55 -27 109 -30 120 -2 12 -9 39 -14 61 -6 22 -11 43 -11
48 0 4 2180 7 4845 7 l4845 0 -5 28 c-7 38 -23 139 -30 192 -3 25 -10 70 -15
100 -5 30 -13 120 -16 200 -4 80 -8 163 -9 185 -2 22 -3 48 -4 57 -1 16 -3 17
-123 19 -7 0 -40 0 -73 0 -33 0 -67 0 -75 0 -8 0 -40 0 -70 0 -30 -1 -83 0
-118 1 -34 2 -62 1 -62 -2 0 -3 -44 -4 -97 -2 -127 4 -205 2 -215 -4 -4 -3 -8
-2 -8 3 0 4 -36 8 -80 8 -44 0 -80 -2 -80 -5 0 -3 -44 -4 -97 -2 -54 1 -123 2
-153 1 -30 0 -62 0 -70 0 -8 0 -49 0 -90 0 -41 0 -82 0 -90 0 -8 0 -40 0 -70
0 -30 0 -68 0 -85 1 -95 4 -145 4 -145 0 0 -3 -44 -4 -97 -2 -127 4 -205 2
-215 -4 -4 -3 -8 -2 -8 3 0 4 -36 8 -80 8 -44 0 -80 -2 -80 -5 0 -3 -44 -4
-97 -2 -54 1 -123 2 -153 1 -30 0 -68 0 -85 1 -16 1 -37 2 -45 1 -43 -3 -103
0 -111 5 -5 3 -9 2 -9 -3 0 -4 -21 -7 -47 -6 -27 1 -64 2 -83 3 -19 1 -65 1
-102 0 -38 -1 -72 2 -78 5 -5 3 -10 3 -10 -2 0 -4 -21 -7 -47 -6 -27 1 -64 2
-83 3 -19 1 -65 1 -102 0 -38 -1 -72 2 -78 5 -5 3 -10 3 -10 -2 0 -4 -21 -7
-47 -6 -27 1 -64 2 -83 3 -19 1 -65 1 -102 0 -38 -1 -72 2 -78 5 -5 3 -10 3
-10 -2 0 -4 -28 -7 -62 -5 -150 6 -238 7 -238 2 0 -3 -44 -4 -97 -2 -127 4
-205 2 -215 -4 -4 -3 -8 -2 -8 3 0 4 -36 8 -80 8 -44 0 -80 -2 -80 -5 0 -3
-44 -4 -97 -2 -54 1 -123 2 -153 1 -30 0 -68 0 -85 1 -95 4 -145 4 -145 0 0
-3 -44 -4 -97 -2 -127 4 -205 2 -215 -4 -4 -3 -8 -2 -8 3 0 4 -36 8 -80 8 -44
0 -80 -2 -80 -5 0 -3 -44 -4 -97 -2 -54 1 -123 2 -153 1 -30 0 -68 0 -85 1
-95 4 -145 4 -145 0 0 -3 -44 -4 -97 -2 -127 4 -205 2 -215 -4 -4 -3 -8 -2 -8
3 0 4 -36 8 -80 8 -44 0 -80 -2 -80 -5 0 -6 -149 -3 -167 4 -7 3 -13 2 -13 -2
0 -4 -21 -6 -47 -5 -27 1 -64 2 -83 3 -19 1 -65 1 -102 0 -38 -1 -72 2 -78 5
-5 3 -10 3 -10 -2 0 -4 -21 -7 -47 -6 -27 1 -64 2 -83 3 -19 1 -65 1 -102 0
-38 -1 -72 2 -78 5 -5 3 -10 3 -10 -2 0 -4 -21 -7 -47 -6 -27 1 -64 2 -83 3
-19 1 -65 1 -102 0 -38 -1 -72 2 -78 5 -5 3 -10 3 -10 -2 0 -4 -21 -7 -47 -6
-27 1 -64 2 -83 3 -19 1 -65 1 -102 0 -38 -1 -72 2 -78 5 -5 3 -10 3 -10 -2 0
-4 -21 -7 -47 -6 -27 1 -64 2 -83 3 -19 1 -65 1 -102 0 -38 -1 -72 2 -78 5 -5
3 -10 3 -10 -2 0 -4 -21 -7 -47 -6 -27 1 -64 2 -83 3 -19 1 -65 1 -102 0 -38
-1 -72 2 -78 5 -5 3 -10 3 -10 -2 0 -4 -21 -7 -47 -6 -27 1 -64 2 -83 3 -19 1
-65 1 -102 0 -38 -1 -72 2 -78 5 -5 3 -10 3 -10 -2 0 -4 -28 -7 -62 -5 -150 6
-238 7 -238 2 0 -3 -44 -4 -97 -2 -82 2 -157 2 -238 1 -8 0 -39 1 -68 1 -29 1
-57 1 -62 0 -6 -2 -22 -2 -37 -1 l-27 1 5 113 c9 214 13 269 18 274 2 3 2183
5 4845 5 4199 -1 4841 1 4842 14 1 8 2 17 3 22 1 4 6 32 10 62 5 30 10 64 12
75 4 19 8 53 20 138 4 36 11 67 39 187 2 8 11 43 20 77 9 35 18 73 21 85 9 39
12 53 14 53 1 0 4 12 6 28 4 21 1 27 -13 27 -10 1 -2188 1 -4840 1 -3460 1
-4823 4 -4823 12 0 6 28 89 62 184 l61 173 4849 0 c4303 0 4848 2 4848 15 0 8
5 15 10 15 6 0 10 6 10 13 0 11 16 45 113 246 22 46 64 122 94 170 29 47 56
93 60 101 3 8 22 39 40 69 19 29 32 56 29 58 -3 3 -2181 6 -4841 6 l-4835 0
16 26 c9 14 61 85 114 157 l98 131 4823 1 c2653 0 4834 1 4846 1 24 1 40 15
128 116 102 116 350 358 434 422 9 7 12 13 6 13 -5 1 -2185 1 -4844 1 -2658 1
-4829 4 -4825 9 5 4 52 40 104 79 52 39 100 74 105 78 6 5 28 22 50 38 l40 30
4850 0 4850 1 30 21 c17 11 80 50 140 86 61 35 126 74 145 86 19 11 42 24 50
27 57 24 310 143 310 146 0 2 -2173 3 -4829 3 -2657 0 -4827 3 -4823 6 7 7
144 59 165 63 6 2 23 7 37 13 14 6 50 19 80 31 l56 20 4850 0 4849 1 165 41
c91 23 174 44 185 46 48 10 133 24 167 28 45 6 91 14 133 22 17 4 118 8 225
11 l195 4 25 28 c31 34 54 63 100 121 19 24 49 59 65 77 17 18 35 38 40 45 22
29 140 173 145 178 3 3 25 30 50 60 24 30 54 66 67 80 12 14 66 79 120 145
112 137 122 150 181 219 23 28 48 57 54 65 105 129 204 249 215 261 14 15 25
29 85 102 18 23 38 46 43 52 10 10 83 100 115 139 8 11 20 24 25 31 6 6 28 33
50 61 22 27 48 59 58 69 9 11 17 24 17 28 0 5 5 6 10 3 6 -3 10 0 10 7 0 8 8
21 18 29 22 21 77 89 77 97 0 8 -12354 9 -12402 0z"/>
<path d="M13686 10221 c-3 -4 16 -11 42 -15 26 -3 58 -8 72 -10 14 -3 61 -10
105 -16 44 -6 89 -13 100 -15 52 -8 403 -98 430 -110 17 -7 48 -18 70 -25 89
-28 281 -102 353 -137 42 -20 79 -37 82 -38 16 -3 189 -90 212 -107 16 -11 28
-16 28 -12 0 4 8 0 18 -8 9 -8 74 -49 145 -91 70 -42 180 -116 245 -164 64
-49 128 -96 142 -105 27 -17 36 -26 163 -140 143 -128 400 -394 447 -462 8
-11 18 -25 23 -31 5 -5 40 -53 78 -105 39 -52 78 -104 87 -115 17 -19 67 -98
102 -160 9 -16 43 -72 74 -123 31 -51 56 -96 56 -100 0 -4 -2212 -7 -4916 -7
-2703 0 -4917 -2 -4919 -5 -1 -3 19 -50 45 -105 88 -183 128 -273 136 -300 1
-5 27 -77 56 -160 l54 -150 118 -2 c65 -1 124 -4 132 -7 7 -3 15 -2 18 2 2 4
22 6 43 5 60 -5 115 -5 120 0 2 3 20 1 39 -3 19 -4 36 -5 38 -1 2 3 19 5 38 4
67 -4 89 -4 370 -3 159 1 292 -1 297 -5 5 -3 12 -2 14 3 3 4 23 6 44 5 60 -5
115 -5 120 0 2 3 20 1 39 -3 19 -4 36 -5 38 -1 2 3 19 5 38 4 67 -4 89 -4 370
-3 159 1 292 -1 297 -5 5 -3 12 -2 14 3 3 4 23 6 44 5 60 -5 115 -5 120 0 2 3
20 1 39 -3 19 -4 36 -5 38 -1 2 3 19 5 38 4 67 -4 89 -4 370 -3 159 1 292 -1
297 -5 5 -3 12 -2 14 3 3 4 23 6 44 5 60 -5 115 -5 120 0 2 3 20 1 39 -3 19
-4 36 -5 38 -1 2 3 19 5 38 4 67 -4 89 -4 370 -3 159 1 292 -1 297 -5 5 -3 12
-2 14 3 3 4 23 6 44 5 60 -5 115 -5 120 0 2 3 20 1 39 -3 19 -4 36 -5 38 -1 2
3 19 5 38 4 67 -4 89 -4 370 -3 159 1 292 -1 297 -5 5 -3 12 -2 14 3 3 4 23 6
44 5 60 -5 115 -5 120 0 2 3 20 1 39 -3 19 -4 36 -5 38 -1 2 3 19 5 38 4 67
-4 85 -4 210 -3 69 1 131 -1 137 -4 5 -4 12 -3 14 2 3 4 23 6 44 5 60 -5 115
-5 120 0 2 3 20 1 39 -3 19 -4 36 -5 38 -1 2 3 19 5 38 4 67 -4 89 -4 370 -3
159 1 292 -1 297 -5 5 -3 12 -2 14 3 3 4 23 6 44 5 60 -5 115 -5 120 0 2 3 20
1 39 -3 19 -4 36 -5 38 -1 2 3 19 5 38 4 67 -4 89 -4 370 -3 159 1 292 -1 297
-5 5 -3 12 -2 14 3 3 4 23 6 44 5 60 -5 115 -5 120 0 2 3 20 1 39 -3 19 -4 36
-5 38 -1 2 3 19 5 38 4 67 -4 85 -4 188 -4 58 1 112 1 120 0 8 0 80 0 160 0
80 0 152 0 160 0 8 0 80 0 160 0 80 0 152 0 160 0 8 0 80 0 160 0 80 0 152 0
160 0 21 0 300 0 325 0 211 1 349 0 351 -2 3 -3 94 -362 94 -371 0 -3 -2218
-6 -4928 -6 l-4929 0 13 -84 c6 -46 15 -105 19 -132 4 -27 9 -58 10 -69 16
-99 19 -134 29 -379 3 -59 6 -110 8 -112 5 -4 78 -5 268 -4 30 0 60 1 65 1
166 -2 222 -2 230 -1 6 1 37 1 70 1 171 -2 401 -2 410 -1 6 1 37 1 70 0 33 0
85 0 115 0 65 1 49 1 183 -1 59 -1 109 0 112 2 2 2 35 2 74 -1 39 -3 82 -2 95
1 14 4 27 5 30 2 5 -5 278 -7 301 -3 6 2 15 2 20 0 13 -2 288 -2 300 0 6 2 15
2 20 0 13 -2 288 -2 300 0 6 2 15 1 20 0 6 -1 57 -1 115 0 58 1 110 1 115 1
83 -1 363 -2 370 -1 6 1 37 1 70 0 33 0 85 0 115 0 30 0 60 1 65 1 166 -2 222
-2 230 -1 6 1 37 1 70 1 33 -1 125 -1 205 0 80 0 150 0 155 0 216 -2 362 -2
370 -1 6 1 37 1 70 0 33 0 85 0 115 0 30 0 60 1 65 1 166 -2 222 -2 230 -1 6
1 37 1 70 1 33 -1 125 -1 205 0 80 0 150 0 155 0 216 -2 362 -2 370 -1 6 1 37
1 70 0 33 0 85 0 115 0 30 0 60 1 65 1 166 -2 222 -2 230 -1 6 1 37 1 70 1 33
-1 125 -1 205 0 80 0 150 0 155 0 216 -2 362 -2 370 -1 6 1 37 1 70 0 33 0 85
0 115 0 30 0 60 1 65 1 166 -2 222 -2 230 -1 6 1 37 1 70 1 171 -2 401 -2 410
-1 6 1 37 1 70 0 33 0 85 0 115 0 30 0 60 1 65 1 166 -2 222 -2 230 -1 6 1 37
1 70 1 171 -2 401 -2 410 -1 6 1 37 1 70 0 33 0 85 0 115 0 30 0 60 1 65 1
167 -2 222 -2 230 -1 23 3 158 1 162 -3 2 -3 20 -1 39 3 18 4 34 5 34 1 0 -3
22 -5 50 -4 l50 1 -6 -111 c-3 -62 -7 -147 -8 -190 -2 -43 -6 -80 -9 -83 -3
-3 -2226 -6 -4941 -6 -4573 0 -4936 -1 -4940 -17 -3 -9 -7 -34 -10 -56 -3 -22
-7 -58 -11 -80 -9 -63 -16 -108 -20 -130 -2 -11 -6 -40 -9 -65 -4 -25 -25
-117 -48 -205 -56 -222 -55 -215 -27 -216 13 0 2236 0 4940 -1 l4916 0 -27
-74 c-16 -41 -26 -74 -23 -74 3 0 0 -7 -7 -15 -7 -8 -9 -15 -5 -15 4 0 3 -6
-2 -13 -6 -6 -23 -49 -37 -95 l-28 -82 -4902 0 -4902 0 -63 -133 c-92 -191
-133 -272 -143 -275 -4 -2 -8 -8 -8 -12 0 -5 -34 -66 -76 -135 -41 -70 -73
-129 -70 -133 3 -3 2206 -5 4896 -5 2689 0 4890 -2 4890 -4 0 -2 -21 -32 -47
-67 -27 -35 -55 -74 -63 -86 -8 -12 -22 -30 -30 -40 -8 -10 -22 -28 -30 -40
-8 -13 -25 -35 -37 -50 l-23 -27 -4871 -1 -4872 0 -56 -61 c-32 -33 -75 -82
-98 -108 -66 -76 -142 -153 -222 -223 -40 -36 -96 -86 -125 -112 l-51 -47 50
-1 c28 -1 2218 -1 4868 -2 2649 0 4817 -1 4817 -3 0 -2 -24 -20 -52 -41 -29
-21 -55 -41 -58 -44 -3 -4 -36 -28 -75 -56 -38 -27 -80 -58 -93 -69 -24 -20
-36 -20 -4902 -21 l-4878 0 -41 -27 c-22 -15 -42 -27 -45 -27 -2 0 -33 -18
-67 -40 -120 -74 -214 -125 -367 -196 -84 -40 -150 -74 -145 -76 4 -3 2191 -4
4860 -4 2668 1 4849 -2 4846 -6 -2 -5 -9 -8 -15 -8 -6 0 -84 -27 -173 -59
l-163 -59 -4798 -2 c-2640 0 -4805 -1 -4811 -2 -7 -1 -13 -5 -13 -10 0 -5 -4
-7 -8 -4 -5 3 -51 -6 -103 -20 -52 -14 -101 -26 -109 -28 -8 -2 -33 -9 -55
-15 -22 -6 -58 -13 -80 -16 -22 -3 -50 -8 -63 -11 -12 -2 -44 -7 -70 -9 -26
-3 -56 -7 -67 -10 -11 -2 -42 -7 -70 -11 -27 -3 -53 -8 -57 -11 -5 -2 -111 -4
-236 -4 -225 1 -229 0 -248 -22 -20 -24 -104 -125 -117 -142 -4 -5 -21 -26
-38 -45 -17 -19 -43 -51 -57 -70 -15 -19 -39 -47 -54 -63 -16 -15 -28 -29 -28
-32 0 -3 -11 -18 -24 -33 -20 -22 -269 -323 -309 -372 -30 -38 -221 -268 -241
-290 -12 -14 -52 -63 -90 -110 -38 -46 -82 -98 -97 -115 -16 -16 -29 -33 -29
-36 0 -3 -10 -17 -22 -31 -76 -83 -436 -522 -437 -532 -1 -12 12327 -15 12409
-3 84 11 119 17 190 28 36 6 79 12 95 14 27 3 48 6 140 21 69 12 508 126 557
145 29 11 78 29 108 39 128 42 281 100 365 140 50 23 141 67 203 96 63 30 118
54 123 54 5 0 9 5 9 10 0 6 7 10 17 10 9 0 31 11 50 26 18 14 33 21 33 17 0
-4 4 -3 8 2 4 6 86 58 182 115 96 57 180 109 186 115 6 5 23 19 38 30 37 26
204 151 281 209 33 25 87 71 120 102 33 30 94 85 135 122 94 85 177 168 260
260 36 40 79 88 95 105 101 110 124 139 223 275 9 13 24 32 32 43 8 10 26 34
40 54 14 20 35 48 48 63 21 24 119 177 146 227 22 40 100 170 106 175 22 21
256 510 280 585 7 22 15 45 19 50 3 6 6 15 8 20 1 6 16 48 33 95 47 129 98
282 103 310 3 14 17 70 31 125 35 132 74 301 80 345 8 60 35 243 44 295 7 43
9 55 13 68 1 4 7 106 15 272 9 184 9 355 0 537 -11 209 -15 251 -36 378 -5 30
-12 75 -15 100 -3 25 -10 70 -15 100 -5 30 -12 73 -15 95 -3 22 -10 58 -16 80
-6 22 -13 47 -15 55 -43 192 -97 387 -124 455 -12 30 -23 59 -26 70 -7 28 -95
266 -112 305 -18 41 -79 172 -169 360 -20 41 -55 104 -77 140 -23 36 -53 86
-66 113 -14 26 -28 47 -31 47 -4 0 -10 11 -13 25 -4 14 -11 25 -16 25 -6 0
-10 5 -10 10 0 6 -16 36 -35 66 -19 30 -35 59 -35 64 0 6 -4 10 -8 10 -4 0
-28 28 -52 63 -24 34 -48 67 -52 72 -35 42 -148 196 -148 200 0 5 -23 32 -90
105 -14 15 -61 67 -105 116 -96 107 -233 244 -341 339 -43 39 -92 84 -109 100
-17 17 -51 46 -75 65 -25 19 -46 38 -48 42 -2 5 -8 8 -14 8 -5 0 -33 19 -63
43 -29 23 -88 67 -130 97 -42 30 -83 61 -90 67 -26 24 -451 276 -530 313 -44
21 -141 68 -215 103 -74 35 -182 81 -240 101 -58 21 -141 51 -185 68 -44 16
-86 32 -95 34 -8 2 -40 12 -70 23 -31 11 -67 22 -80 25 -14 2 -115 27 -225 54
-110 27 -240 55 -290 62 -49 6 -108 16 -130 20 -22 5 -65 11 -95 15 -30 3 -77
10 -105 14 -27 4 -213 9 -413 9 -200 1 -367 4 -372 7 -5 3 -11 1 -14 -4z"/>
</g>
</svg>
